<?xml version="1.0" encoding="UTF-8"?>
<svg id="Layer_1" data-name="Layer 1" xmlns="http://www.w3.org/2000/svg" viewBox="0 0 62.21 67.18">
  <defs>
    <style>
      .cls-1 {
        fill-rule: evenodd;
        fill: #9fafbe;
        stroke: #9fafbe;
        stroke-width: 2px;
      }
    </style>
  </defs>
  <path class="cls-1" d="M55.47,33.74h-2.13c-1.04,0-1.88.84-1.88,1.88s.84,1.88,1.88,1.88h2.13c1.64,0,2.99,1.34,2.99,3.09,0,1.64-1.33,2.97-3,2.99h-2.12c-1.04,0-1.88.84-1.88,1.88s.84,1.87,1.88,1.87h2.15c1.62.01,2.96,1.33,2.97,3.07.01,1.64-1.32,2.99-2.97,3l-3.89.03h0c-1.04,0-1.87.85-1.86,1.89,0,1.03.84,1.86,1.88,1.86h.03c1.57,0,2.9,1.45,2.91,3.27,0,.8-.3,1.55-.86,2.12-.56.57-1.31.88-2.09.89h-17.85c-.05,0-.1,0-.16,0-12.44-.04-13.47-5.54-13.56-8.12v-26.55c5.7-1.33,9.65-4.19,11.41-8.37,2.18-5.18.61-9.27-.43-11.97-.34-.87-.65-1.7-.69-2.19-.05-.67.16-1.23.62-1.68.59-.57,1.5-.88,2.43-.77,3.81.39,5.86,4.58,6.74,7.04,1.65,4.58,1.45,9.48.93,13.11h-3.4c-1.03,0-1.88.84-1.88,1.88s.84,1.88,1.88,1.88h17.84c1.64,0,2.99,1.34,2.99,3.09,0,1.65-1.34,2.99-2.99,2.99h0ZM16.27,63.08H3.75V25.5h12.52v29.12s-.01.03-.01.05c0,.11,0,.21.01.32v8.08ZM60.12,35.61c1.29-1.24,2.08-2.99,2.08-4.96,0-3.71-3.02-6.74-6.74-6.74h-10.63c.52-4.01.6-9.33-1.21-14.37C42.45,6.25,39.6.64,33.74.04c-2.01-.2-4.04.47-5.42,1.82-1.26,1.22-1.88,2.88-1.75,4.65.08,1.05.48,2.07.93,3.27.97,2.52,2.07,5.38.48,9.16-1.21,2.86-3.93,4.8-7.96,5.91v-1.21c0-1.04-.84-1.88-1.88-1.88H1.88c-1.03,0-1.88.84-1.88,1.88v41.33c0,1.03.84,1.88,1.88,1.88h16.27c1.03,0,1.88-.84,1.88-1.88v-1.51c2.61,2.21,6.87,3.75,13.71,3.75.06,0,.1,0,.16,0h17.72c1.8,0,3.48-.72,4.75-2,1.26-1.28,1.95-2.98,1.94-4.88,0-1.22-.33-2.4-.92-3.45,2.8-.84,4.85-3.46,4.83-6.6-.01-1.9-.81-3.61-2.08-4.82,1.28-1.24,2.08-2.99,2.08-4.96s-.8-3.64-2.08-4.86h0Z"/>
</svg>