<?xml version="1.0" encoding="UTF-8"?>
<svg id="Layer_1" data-name="Layer 1" xmlns="http://www.w3.org/2000/svg" viewBox="0 0 81.25 63.29">
<defs>
    <style>
      .cls-1 {
        fill-rule: evenodd;
        fill: #9fafbe;
        stroke: #9fafbe;
        stroke-width: 1.5px;
      }
    </style>
  </defs>
  <path class="cls-1" d="M76.02,5.22c-6.96-6.96-18.3-6.96-25.26,0l-6.9,6.9c-6.84-3.66-15.52-2.45-21.06,3.1L5.22,32.8c-6.96,6.96-6.96,18.3,0,25.26,3.37,3.37,7.86,5.22,12.63,5.23h0c4.78,0,9.26-1.86,12.63-5.23l6.89-6.89c2.62,1.4,5.51,2.09,8.39,2.09,4.64,0,9.25-1.78,12.67-5.2l17.58-17.58c6.96-6.96,6.96-18.3,0-25.26h0ZM28.4,55.98c-2.81,2.81-6.56,4.36-10.55,4.36h0c-3.99,0-7.73-1.55-10.55-4.36-5.82-5.82-5.82-15.28,0-21.09l17.58-17.58c2.86-2.86,6.71-4.34,10.58-4.34,2.11,0,4.23.44,6.2,1.34l-3.44,3.44c-3.62-.99-7.54.02-10.22,2.69l-17.58,17.58c-4.09,4.09-4.09,10.74,0,14.83s10.74,4.09,14.83,0l17.58-17.58c2.68-2.68,3.68-6.6,2.69-10.22l3.44-3.44c2.55,5.57,1.42,12.38-2.99,16.78l-17.58,17.58h0ZM35.64,20.34l-2.46,2.46c-5.54,5.54-6.76,14.22-3.1,21.06l-6.9,6.9c-2.94,2.94-7.72,2.94-10.66,0-2.94-2.94-2.94-7.72,0-10.66l17.58-17.58c1.48-1.48,3.5-2.23,5.54-2.18h0ZM40.49,30.11l2.46-2.46c.05,2.04-.7,4.05-2.18,5.54l-2.46,2.46c-.05-2.04.7-4.06,2.18-5.54ZM48.06,40.49c5.54-5.54,6.75-14.22,3.1-21.06l6.9-6.9c2.94-2.94,7.72-2.94,10.66,0,2.94,2.94,2.94,7.72,0,10.66l-17.58,17.58c-1.48,1.48-3.5,2.23-5.54,2.18l2.46-2.46h0ZM73.94,28.4l-17.58,17.58c-4.41,4.41-11.21,5.55-16.78,3l3.44-3.44c3.62.99,7.54-.01,10.22-2.69l17.58-17.58c4.09-4.09,4.09-10.74,0-14.83-4.09-4.09-10.74-4.09-14.83,0l-7.69,7.69s0,0,0,0l-5.47,5.47h0s-4.41,4.41-4.41,4.41c-2.68,2.68-3.68,6.59-2.69,10.22l-3.44,3.44c-2.55-5.57-1.42-12.37,2.99-16.78L52.85,7.31c5.82-5.82,15.28-5.82,21.09,0,5.82,5.82,5.82,15.28,0,21.09h0Z"/>
</svg>