<?xml version="1.0" encoding="UTF-8"?>
<svg id="Layer_1" data-name="Layer 1" xmlns="http://www.w3.org/2000/svg" viewBox="0 0 91.48 52.4">
<defs>
    <style>
      .cls-1 {
        fill-rule: evenodd;
        fill: #9fafbe;
        stroke: #9fafbe;
        stroke-width: 2px;
      }
    </style>
  </defs>
  <path class="cls-1" d="M48.81,25.56l-2.02-9.48-1.06-5.02-2.36-11.06-1.25.75c-6.08,3.64-12.69,6.23-19.62,7.71-6.94,1.48-14.02,1.79-21.06.94l-1.44-.17,5.42,25.56c1.23,5.79,4.64,10.77,9.62,14,3.62,2.38,7.79,3.61,12.02,3.61,1.56,0,3.11-.17,4.67-.5,6-1.27,10.92-4.88,14-9.67.44-.67.83-1.36,1.19-2.06,2.21-4.37,2.98-9.48,1.89-14.6h0ZM45.73,37.69c-.33.86-.73,1.69-1.19,2.48-2.75,4.79-7.44,8.44-13.25,9.69-5.25,1.12-10.62.12-15.12-2.81-4.5-2.92-7.58-7.42-8.71-12.69L2.62,11.62c6.81.69,13.62.29,20.31-1.12,6.69-1.42,13.08-3.86,19-7.23l2.73,12.81,1.06,5.02,1.04,4.89c.85,4.07.41,8.11-1.05,11.69h0Z"/>
  <path class="cls-1" d="M13.59,26.89c-.48,0-.91-.34-1.02-.82-.27-1.29-.03-2.61.69-3.73.72-1.11,1.83-1.87,3.12-2.14,2.66-.57,5.3,1.14,5.87,3.81.12.56-.24,1.12-.8,1.23-.57.11-1.12-.24-1.23-.8-.33-1.55-1.86-2.54-3.39-2.21-.75.16-1.39.6-1.8,1.24-.42.64-.56,1.41-.4,2.16.12.56-.24,1.12-.8,1.23-.08,0-.15.02-.22.02h0Z"/>
  <path class="cls-1" d="M30.06,23.38c-.48,0-.91-.34-1.02-.82-.57-2.67,1.14-5.3,3.81-5.87,2.67-.56,5.3,1.14,5.87,3.81.12.57-.24,1.12-.8,1.23-.57.12-1.12-.24-1.23-.8-.33-1.55-1.84-2.54-3.39-2.21-1.54.33-2.53,1.85-2.2,3.4.12.56-.24,1.11-.8,1.23-.07.02-.14.02-.22.02h0Z"/>
  <path class="cls-1" d="M38.83,27.88l-1.56.94c-2.98,1.79-6.23,3.06-9.64,3.79-3.42.73-6.89.88-10.35.46l-1.77-.21.69,1.64c1.83,4.48,6.19,7.29,10.88,7.29.81,0,1.64-.08,2.46-.25,9.31-1.98,9.33-11.67,9.33-11.85l-.02-1.81ZM29.08,39.5c-3.98.86-7.98-.88-10.12-4.19,3.04.21,6.11-.02,9.11-.67,2.98-.62,5.83-1.67,8.52-3.06-.46,2.5-2.04,6.77-7.5,7.92h0Z"/>
  <path class="cls-1" d="M90.02,9.4c-7.04.86-14.12.54-21.06-.94-6.94-1.46-13.54-4.06-19.62-7.71L48.08,0l-2.36,11.06-1.06,5.02,1.06,5.02,1.06-5.02,2.73-12.81c5.94,3.38,12.31,5.81,19,7.23,6.69,1.42,13.5,1.81,20.31,1.12l-4.83,22.73c-1.12,5.27-4.21,9.77-8.71,12.69-3.29,2.14-7.06,3.27-10.9,3.27-1.42,0-2.81-.17-4.23-.46-5.81-1.25-10.5-4.89-13.25-9.69-.46-.79-.86-1.62-1.19-2.48-.33.86-.73,1.69-1.19,2.48.36.71.75,1.39,1.19,2.06,3.08,4.79,8,8.39,14,9.67,1.56.33,3.11.5,4.67.5,4.23,0,8.39-1.23,12.02-3.61,4.98-3.23,8.39-8.21,9.62-14l5.44-25.56-1.46.16Z"/>
  <path class="cls-1" d="M58.38,22.66c-.34,0-.68-.04-1.03-.11-2.67-.57-4.38-3.2-3.81-5.87.12-.57.68-.92,1.23-.8.57.12.92.67.8,1.23-.33,1.55.66,3.07,2.2,3.4,1.55.34,3.07-.66,3.4-2.21.12-.57.69-.91,1.24-.8.56.12.92.67.8,1.23-.5,2.33-2.56,3.93-4.84,3.93h0Z"/>
  <path class="cls-1" d="M74.85,26.16c-.34,0-.68-.04-1.02-.11-1.29-.27-2.4-1.04-3.12-2.15-.72-1.11-.96-2.43-.69-3.73.12-.57.68-.92,1.24-.8.56.12.92.67.8,1.23-.16.75-.02,1.52.4,2.16.41.64,1.05,1.08,1.8,1.24,1.54.34,3.07-.66,3.39-2.21.12-.57.69-.91,1.24-.8.56.12.92.67.8,1.23-.5,2.33-2.55,3.92-4.84,3.92h0Z"/>
  <path class="cls-1" d="M64.31,30.29c-5.56-1.17-11.17,1.79-13.33,7.04l-.69,1.64,1.77-.21c3.46-.42,6.96-.27,10.36.46,3.42.73,6.67,2,9.67,3.79l1.54.94.02-1.81c0-.17-.02-9.86-9.34-11.85h0ZM62.85,37.19c-2.31-.48-4.64-.73-6.98-.73-.71,0-1.42.02-2.12.06,2.14-3.31,6.17-5.04,10.15-4.19,5.42,1.14,7,5.42,7.48,7.92-2.68-1.39-5.54-2.41-8.52-3.06h0Z"/>
  
</svg>