<?xml version="1.0" encoding="UTF-8"?>
<svg id="Layer_1" data-name="Layer 1" xmlns="http://www.w3.org/2000/svg" viewBox="0 0 197 157.79">
  <defs>
    <style>
      .cls-1 {
        fill: #f8dcff;
        stroke-width: 0px;
      }
    </style>
  </defs>
  <path class="cls-1" d="M166.98,157.78c-47.82,0-95.15,0-142.48,0C8.18,157.78,0,149.58,0,133.19,0,98.03,0,62.86,0,27.7v-6.79c33.37,23.08,65.9,45.59,98.5,68.14,32.54-22.54,64.99-45.02,98.5-68.24,0,3.09,0,4.99,0,6.9,0,35,0,69.99,0,104.99,0,16.99-8.09,25.09-25.03,25.09-1.5,0-3,0-4.99,0Z"/>
  <path class="cls-1" d="M174.26,16.18c-25.39,17.64-50.5,35.06-75.77,52.59C68.25,47.8,37.98,26.82,7.39,5.61,11.52,1.55,16.29.06,21.48.05,72.78,0,124.08-.08,175.38.19c4.68.02,9.35,2.36,14.03,3.62,0,.61,0,1.22,0,1.82-4.95,3.44-9.9,6.89-15.14,10.55Z"/>
</svg>