<?xml version="1.0" encoding="UTF-8"?>
<svg id="Layer_1" data-name="Layer 1" xmlns="http://www.w3.org/2000/svg" viewBox="0 0 476 476">
  <defs>
    <style>
      .cls-1 {
        fill: #5b137d;
        stroke-width: 0px;
      }
    </style>
  </defs>
  <path class="cls-1" d="M322.47,476c-10.8-5.12-15.59-13.28-15.55-24.98.18-58.5.03-116.99.14-175.49.02-8.89,3.48-16.69,12.1-19.94,11.51-4.34,26.49-2.3,30.68,13.18.84,3.11,1.12,6.46,1.13,9.7.07,50.16.05,100.33.05,150.49v5.78c1.65.1,3.09.25,4.53.25,17.5.02,35,.09,52.5-.01,13.86-.08,26.95-13.07,26.95-27,.04-113.33.05-226.65,0-339.98,0-13.89-13.09-26.97-26.97-26.98-113.33-.05-226.65-.05-339.97,0-13.93,0-26.99,13.1-27,26.95-.05,113.32-.05,226.65,0,339.97,0,13.96,13.12,26.96,26.93,27.02,22.81.1,45.62.03,69.05.03v-5.52c0-49.5-.04-98.99.05-148.49.01-6.58,1.26-12.84,6.26-17.89,4.06-4.11,9.05-5.98,14.46-6.02,27.5-.19,55.02-.76,82.49.13,20.44.66,38.76,7.62,50.89,25.53,6.18,9.13,8.88,19.41,10.15,30.51,1.31,11.38.18,22.26-3.03,32.87-6.13,20.27-20.78,32.19-40.62,37.69-8.39,2.33-17.26,3.68-25.97,4-16.63.62-33.31.18-50.67.18v4.89c0,18.83.19,37.67-.1,56.49-.11,6.8-.69,13.95-5.94,19.12-2.78,2.74-6.46,4.57-9.85,7.15-34.8.34-69.48.34-104.8-.04-23.06-3.51-40.14-14.98-51.09-34.61C4.95,433.34,3.01,424.38,0,416,0,297.65,0,179.29.38,60.31,3.89,37.25,15.36,20.17,34.99,9.22c7.67-4.28,16.64-6.22,25.01-9.22,118.35,0,236.71,0,355.69.38,23.06,3.51,40.14,14.98,51.09,34.61,4.28,7.67,6.22,16.64,9.22,25.01,0,118.35,0,236.71-.38,355.69-3.51,23.06-14.98,40.14-34.61,51.09-7.67,4.28-16.64,6.22-25.01,9.22h-93.53M181,349.39v6.37c16.55-.95,32.69-.63,48.4-3.06,24.15-3.74,30.94-21.49,25.5-41.35-3.44-12.56-13.25-17.79-25.33-19.28-6.19-.76-12.48-.81-18.72-1.12-9.84-.48-19.68-.91-29.85-1.37v59.81Z"/>
</svg>