<?xml version="1.0" encoding="UTF-8"?>
<svg id="Layer_1" data-name="Layer 1" xmlns="http://www.w3.org/2000/svg" viewBox="0 0 511.9 500.52">
  <defs>
    <style>
      .cls-1 {
        fill: #1e1e1e;
        stroke-width: 0px;
      }
    </style>
  </defs>
  <path class="cls-1" d="M511.9,278.68c-.67,4.36-1.27,8.26-2.01,12.14-2.32,12.21-3.62,24.73-7.29,36.52-4.74,15.25-10.29,30.46-17.51,44.67-7.03,13.84-16.03,26.82-25.24,39.39-7.72,10.54-16.39,20.55-25.69,29.72-15.88,15.65-33.34,29.57-53.45,39.51-13.76,6.8-27.92,12.86-42.22,18.46-11.29,4.42-19.59-1.85-19.59-13.78,0-24.83.32-49.66-.12-74.49-.27-15.49-5.07-29.58-17.12-41.49,3.94-.79,7.35-1.76,10.82-2.12,18.48-1.93,35.86-7.17,52.29-15.97,16.79-8.99,30.49-21.07,39.04-38.18,7.01-14.03,11.69-28.91,13.06-44.65.8-9.15,2.14-18.35,1.87-27.49-.64-21.83-6.52-42.17-20.92-59.12-4.43-5.21-5.18-9.84-2.99-16.12,4.08-11.66,4.02-23.71,1.41-35.72-1.16-5.33-2.34-10.68-3.97-15.87-2.52-8.01-5.59-9.6-13.63-7.83-17.47,3.85-33.72,10.91-48.2,21.11-8.56,6.02-16.28,4.91-25.23,2.7-8.15-2.01-16.61-2.84-24.98-3.85-7.63-.92-15.31-1.76-22.99-1.94-7.07-.17-14.2.22-21.23,1-8.53.95-17,2.52-25.48,3.9-3.5.57-7.32.63-10.38,2.14-6.67,3.29-11.51.19-16.82-3.13-15.04-9.38-30.91-16.96-48.27-21.05-11.67-2.75-14.29-1.39-17.06,9.76-2.71,10.94-5.27,22.03-4,33.38.76,6.86,2.27,13.7,4.2,20.33.93,3.2.48,5.03-1.58,7.44-11.43,13.35-19.16,28.58-21.65,46.09-1.19,8.42-2.26,17.01-1.94,25.46,1.05,28.06,7.09,54.89,24.12,77.91,7.02,9.49,16.76,16.39,27.02,22.45,15.48,9.14,32.5,13.58,49.84,17.09,5.05,1.02,10.3,1.11,16.47,1.73-7.43,7.65-12.57,15.47-14.78,24.95-.51,2.18-1.87,4.39-1.66,6.46.46,4.49-2.75,5.25-5.56,5.86-7.39,1.61-14.91,2.65-22.33,4.15-12.15,2.46-22.41-1.74-32.21-8.4-8.83-6-12.85-15.69-19.12-23.65-9.24-11.74-20.8-20.09-36.15-21.48-3.55-.32-7.27,1.25-11.09,1.99,2.96,8.37,9.58,11.88,15.4,15.94,7.62,5.32,12.34,12.86,16.8,20.57,3.36,5.82,5.94,12.1,8.77,18.22,7,15.14,19.57,23.07,35.33,25.55,11.16,1.75,22.61,1.84,33.94,2.07,4.8.1,9.63-1.32,14.85-2.1.08,1.75.2,3.19.2,4.64.01,14-.11,28,.04,41.99.15,14.13-9.58,16.89-19.06,13.91-24.83-7.81-47.91-19.57-68.83-34.96-11.85-8.72-22.93-18.71-33.25-29.23-15.15-15.44-28.04-32.79-38.85-51.62-9.3-16.19-17.36-32.97-22.07-51.05-3.65-14.01-6.03-28.35-9.01-42.54-.26-1.25-.8-2.44-1.6-3.78-.38-19.82-.38-39.51,0-59.79,1.78-7.88,3.27-15.14,4.58-22.44,5.6-31.11,17.91-59.55,34.79-86.06,13.74-21.57,30.5-40.56,50-57.21,15.46-13.19,32.25-24.3,50.24-33.55,18.45-9.49,37.84-16.83,58.21-20.91,13.82-2.77,27.87-5.2,41.91-5.92,20.53-1.05,41.03-.04,61.48,3.55,23.64,4.15,46.07,11.49,67.56,21.88,20.45,9.89,39.37,22.34,56.24,37.48,15.68,14.07,29.91,29.57,41.79,47.21,11.83,17.55,22.02,35.9,29.3,55.73,6.62,18.02,11.69,36.49,13.55,55.72.39,4.08,1.29,8.12,1.96,12.18v44.53Z"/>
</svg>