<?xml version="1.0" encoding="UTF-8"?>
<svg id="Layer_1" data-name="Layer 1" xmlns="http://www.w3.org/2000/svg" viewBox="0 0 240 240">
  <defs>
    <style>
      .cls-1 {
        fill: #f8dcff;
        stroke-width: 0px;
      }
    </style>
  </defs>
  <path class="cls-1" d="M0,198c0-51.69,0-103.38.34-155.71C4.17,24.22,13.89,11.6,30.08,4.22c4.1-1.87,8.6-2.84,12.92-4.22,51.02,0,102.04,0,153.72.34,17.91,3.1,30.45,12.42,38.16,27.98,2.28,4.61,3.44,9.77,5.12,14.68,0,51.35,0,102.71-.34,154.71-4.37,20.06-15.65,33.2-34.36,39.86-2.71.97-5.53,1.63-8.31,2.43-51.35,0-102.71,0-154.71-.34-20.06-4.37-33.19-15.67-39.89-34.36C1.54,202.89.8,200.43,0,198M100,96.5v93.23h30c0-18.06-.23-35.86.14-53.65.11-5.18,1.07-10.72,3.2-15.39,3.45-7.54,10-11.39,18.58-10.81,8.28.56,13.53,5.38,16.03,12.89,1.34,4.02,1.88,8.46,1.95,12.72.23,14.49.09,28.98.09,43.47,0,3.6,0,7.21,0,10.75h29.88c0-24.23.77-48.22-.2-72.15-1.17-29.07-25.6-45.03-51.96-34.4-6.57,2.65-12.09,7.94-17.95,11.91v-14.81h-29.78v16.21M80,99.5v-19.21h-29.71v109.42h29.71v-90.21M50.01,40.7c-3.76,7.84-3.08,15.28,2.15,20.86,5.02,5.36,11.22,6.94,18.21,4.75,7.36-2.31,12.02-8.89,12.04-16.58.03-7.36-4.64-14.14-11.43-16.61-7.54-2.74-14.8-.31-20.97,7.58Z"/>
</svg>