<?xml version="1.0" encoding="UTF-8"?>
<svg id="Layer_1" data-name="Layer 1" xmlns="http://www.w3.org/2000/svg" viewBox="0 0 38.02 38.02">
  <defs>
    <style>
      .cls-1 {
        fill: #fcb9ea;
        stroke: #fcb9ea;
        stroke-miterlimit: 10;
        stroke-width: 2px;
      }
    </style>
  </defs>
  <path class="cls-1" d="M34.96,1c-.07,0-.15,0-.22.02h-9.74c-1.1-.02-2.01.87-2.03,1.97-.02,1.1.87,2.01,1.97,2.03.02,0,.04,0,.06,0h5.17L11.59,23.61c-.8.77-.82,2.03-.06,2.83.77.8,2.03.82,2.83.06.02-.02.04-.04.06-.06L33,7.85v5.17c-.02,1.1.87,2.01,1.97,2.03,1.1.02,2.01-.87,2.03-1.97,0-.02,0-.04,0-.06V3.27c.15-1.09-.61-2.1-1.71-2.26-.11-.02-.22-.02-.33-.02ZM5,1.02C2.81,1.02,1,2.83,1,5.02v28c0,2.19,1.81,4,4,4h28c2.19,0,4-1.81,4-4v-12c.02-1.1-.87-2.01-1.97-2.03-1.1-.02-2.01.87-2.03,1.97,0,.02,0,.04,0,.06v12H5V5.02h12c1.1.02,2.01-.87,2.03-1.97.02-1.1-.87-2.01-1.97-2.03-.02,0-.04,0-.06,0H5Z"/>
</svg>