<svg xmlns="http://www.w3.org/2000/svg" viewBox="0 0 1080 1620" width="1080" height="1620" role="img" aria-label="Surprise Rail poster A, the gate">
<title>Surprise Rail poster A, the gate</title>
<defs>
<linearGradient id="spectral" x1="0" y1="0" x2="1" y2="0.28">
<stop offset="0" stop-color="#e8dbe2"/><stop offset="0.45" stop-color="#cfc6dd"/>
<stop offset="0.78" stop-color="#b5bcd4"/><stop offset="1" stop-color="#9aa6bd"/>
</linearGradient>
<linearGradient id="spectralL" x1="0" y1="0" x2="1" y2="0">
<stop offset="0" stop-color="#e8dbe2"/><stop offset="0.45" stop-color="#cfc6dd"/>
<stop offset="0.78" stop-color="#b5bcd4"/><stop offset="1" stop-color="#9aa6bd"/>
</linearGradient>
<linearGradient id="win" x1="0" y1="0" x2="0.16" y2="1">
<stop offset="0" stop-color="#f2f0ec"/><stop offset="1" stop-color="#e9e6e1"/>
</linearGradient>
<linearGradient id="wipe" x1="0" y1="0" x2="1" y2="0">
<stop offset="0" stop-color="#cfc6dd" stop-opacity="0"/>
<stop offset="0.5" stop-color="#e8dbe2" stop-opacity="1"/>
<stop offset="1" stop-color="#b5bcd4" stop-opacity="0"/>
</linearGradient>
</defs>
<rect width="1080" height="1620" fill="#08080a"/>
<text x="96" y="132" font-family="'Berkeley Mono', 'Berkeley Mono Trial', ui-monospace, 'SF Mono', Menlo, monospace" font-size="12" letter-spacing="2.16" fill="#8c8c95" text-anchor="start" opacity="1.0">SURPRISE RAIL · HIDDEN STATE</text>
<text x="984" y="116" font-family="'Berkeley Mono', 'Berkeley Mono Trial', ui-monospace, 'SF Mono', Menlo, monospace" font-size="10" letter-spacing="1.2" fill="#5a5a63" text-anchor="end" opacity="1.0">PRANAVI RAM</text>
<text x="984" y="132" font-family="'Berkeley Mono', 'Berkeley Mono Trial', ui-monospace, 'SF Mono', Menlo, monospace" font-size="10" letter-spacing="1.2" fill="#5a5a63" text-anchor="end" opacity="1.0">SPECULATIVE CONCEPT</text>
<text x="984" y="148" font-family="'Berkeley Mono', 'Berkeley Mono Trial', ui-monospace, 'SF Mono', Menlo, monospace" font-size="10" letter-spacing="1.2" fill="#5a5a63" text-anchor="end" opacity="1.0">NOT AN OFFICIAL HBO MAX ASSET</text>
<text x="96" y="300" font-family="forma-djr-display, 'Forma DJR Display', 'Helvetica Neue', Arial, sans-serif" font-size="132" font-weight="600" letter-spacing="-3.96" fill="url(#spectral)" text-anchor="start" opacity="1.0">Look before</text>
<text x="96" y="428" font-family="forma-djr-display, 'Forma DJR Display', 'Helvetica Neue', Arial, sans-serif" font-size="132" font-weight="600" letter-spacing="-3.96" fill="#f2f0ec" text-anchor="start" opacity="1.0">you know.</text>
<text x="96" y="490" font-family="'Berkeley Mono', 'Berkeley Mono Trial', ui-monospace, 'SF Mono', Menlo, monospace" font-size="12" letter-spacing="1.56" fill="#8c8c95" text-anchor="start" opacity="1.0">A DISCOVERY RAIL THAT WITHHOLDS THE COVER ART</text>
<text x="96" y="510" font-family="'Berkeley Mono', 'Berkeley Mono Trial', ui-monospace, 'SF Mono', Menlo, monospace" font-size="12" letter-spacing="1.56" fill="#8c8c95" text-anchor="start" opacity="1.0">AND GIVES YOU TWO WORDS INSTEAD.</text>
<rect x="-60" y="620" width="1200" height="544.0" fill="#131318"/><rect x="-60.0" y="642.5" width="48.0" height="33.0" rx="7.5" fill="#f2f0ec" opacity="1.0"/><rect x="36.0" y="642.5" width="48.0" height="33.0" rx="7.5" fill="#f2f0ec" opacity="1.0"/><rect x="132.0" y="642.5" width="48.0" height="33.0" rx="7.5" fill="#f2f0ec" opacity="1.0"/><rect x="228.0" y="642.5" width="48.0" height="33.0" rx="7.5" fill="#f2f0ec" opacity="1.0"/><rect x="324.0" y="642.5" width="48.0" height="33.0" rx="7.5" fill="#f2f0ec" opacity="1.0"/><rect x="420.0" y="642.5" width="48.0" height="33.0" rx="7.5" fill="#f2f0ec" opacity="1.0"/><rect x="516.0" y="642.5" width="48.0" height="33.0" rx="7.5" fill="#f2f0ec" opacity="1.0"/><rect x="612.0" y="642.5" width="48.0" height="33.0" rx="7.5" fill="#f2f0ec" opacity="1.0"/><rect x="708.0" y="642.5" width="48.0" height="33.0" rx="7.5" fill="#f2f0ec" opacity="1.0"/><rect x="804.0" y="642.5" width="48.0" height="33.0" rx="7.5" fill="#f2f0ec" opacity="1.0"/><rect x="900.0" y="642.5" width="48.0" height="33.0" rx="7.5" fill="#f2f0ec" opacity="1.0"/><rect x="996.0" y="642.5" width="48.0" height="33.0" rx="7.5" fill="#f2f0ec" opacity="1.0"/><rect x="1092.0" y="642.5" width="48.0" height="33.0" rx="7.5" fill="#f2f0ec" opacity="1.0"/><rect x="-60.0" y="1108.5" width="48.0" height="33.0" rx="7.5" fill="#f2f0ec" opacity="1.0"/><rect x="36.0" y="1108.5" width="48.0" height="33.0" rx="7.5" fill="#f2f0ec" opacity="1.0"/><rect x="132.0" y="1108.5" width="48.0" height="33.0" rx="7.5" fill="#f2f0ec" opacity="1.0"/><rect x="228.0" y="1108.5" width="48.0" height="33.0" rx="7.5" fill="#f2f0ec" opacity="1.0"/><rect x="324.0" y="1108.5" width="48.0" height="33.0" rx="7.5" fill="#9a7b45" opacity="1.0"/><rect x="420.0" y="1108.5" width="48.0" height="33.0" rx="7.5" fill="#f2f0ec" opacity="1.0"/><rect x="516.0" y="1108.5" width="48.0" height="33.0" rx="7.5" fill="#f2f0ec" opacity="1.0"/><rect x="612.0" y="1108.5" width="48.0" height="33.0" rx="7.5" fill="#f2f0ec" opacity="1.0"/><rect x="708.0" y="1108.5" width="48.0" height="33.0" rx="7.5" fill="#f2f0ec" opacity="1.0"/><rect x="804.0" y="1108.5" width="48.0" height="33.0" rx="7.5" fill="#f2f0ec" opacity="1.0"/><rect x="900.0" y="1108.5" width="48.0" height="33.0" rx="7.5" fill="#f2f0ec" opacity="1.0"/><rect x="996.0" y="1108.5" width="48.0" height="33.0" rx="7.5" fill="#f2f0ec" opacity="1.0"/><rect x="1092.0" y="1108.5" width="48.0" height="33.0" rx="7.5" fill="#f2f0ec" opacity="1.0"/>
<rect x="-60" y="722.0" width="1200" height="340" fill="url(#win)"/><rect x="-60" y="722.0" width="1200" height="2.5" fill="url(#spectralL)" opacity="0.9"/>
<text x="540" y="922.96" font-family="forma-djr-display, 'Forma DJR Display', 'Helvetica Neue', Arial, sans-serif" font-size="86" font-weight="600" letter-spacing="0.86" fill="#08080a" text-anchor="middle" opacity="1.0">SUBURBAN SECRETS</text>
<text x="324.0" y="1078.0" font-family="'Berkeley Mono', 'Berkeley Mono Trial', ui-monospace, 'SF Mono', Menlo, monospace" font-size="10" letter-spacing="1.3" fill="#9a7b45" text-anchor="start" opacity="1.0">REGISTRATION PIN SEATED</text>
<text x="96" y="1250" font-family="'Berkeley Mono', 'Berkeley Mono Trial', ui-monospace, 'SF Mono', Menlo, monospace" font-size="12" letter-spacing="1.56" fill="#8c8c95" text-anchor="start" opacity="1.0">THE NEXT FRAME HAS NOT ADVANCED YET.</text>
<text x="984" y="1250" font-family="'Berkeley Mono', 'Berkeley Mono Trial', ui-monospace, 'SF Mono', Menlo, monospace" font-size="12" letter-spacing="1.56" fill="#5a5a63" text-anchor="end" opacity="1.0">POSTER A · THE GATE</text>
<text x="96" y="1300" font-family="'Berkeley Mono', 'Berkeley Mono Trial', ui-monospace, 'SF Mono', Menlo, monospace" font-size="10" letter-spacing="1.2" fill="#5a5a63" text-anchor="start" opacity="1.0">SURPRISE RAIL · CONCEPT AND DESIGN BY PRANAVI RAM</text><text x="96" y="1315" font-family="'Berkeley Mono', 'Berkeley Mono Trial', ui-monospace, 'SF Mono', Menlo, monospace" font-size="10" letter-spacing="1.2" fill="#5a5a63" text-anchor="start" opacity="1.0">SPECULATIVE CONCEPT · NOT AN OFFICIAL HBO MAX ASSET</text>
<rect x="-60" y="1400" width="1200" height="544.0" fill="#131318"/><rect x="-60.0" y="1422.5" width="48.0" height="33.0" rx="7.5" fill="#f2f0ec" opacity="1.0"/><rect x="36.0" y="1422.5" width="48.0" height="33.0" rx="7.5" fill="#f2f0ec" opacity="1.0"/><rect x="132.0" y="1422.5" width="48.0" height="33.0" rx="7.5" fill="#f2f0ec" opacity="1.0"/><rect x="228.0" y="1422.5" width="48.0" height="33.0" rx="7.5" fill="#f2f0ec" opacity="1.0"/><rect x="324.0" y="1422.5" width="48.0" height="33.0" rx="7.5" fill="#f2f0ec" opacity="1.0"/><rect x="420.0" y="1422.5" width="48.0" height="33.0" rx="7.5" fill="#f2f0ec" opacity="1.0"/><rect x="516.0" y="1422.5" width="48.0" height="33.0" rx="7.5" fill="#f2f0ec" opacity="1.0"/><rect x="612.0" y="1422.5" width="48.0" height="33.0" rx="7.5" fill="#f2f0ec" opacity="1.0"/><rect x="708.0" y="1422.5" width="48.0" height="33.0" rx="7.5" fill="#f2f0ec" opacity="1.0"/><rect x="804.0" y="1422.5" width="48.0" height="33.0" rx="7.5" fill="#f2f0ec" opacity="1.0"/><rect x="900.0" y="1422.5" width="48.0" height="33.0" rx="7.5" fill="#f2f0ec" opacity="1.0"/><rect x="996.0" y="1422.5" width="48.0" height="33.0" rx="7.5" fill="#f2f0ec" opacity="1.0"/><rect x="1092.0" y="1422.5" width="48.0" height="33.0" rx="7.5" fill="#f2f0ec" opacity="1.0"/><rect x="-60.0" y="1888.5" width="48.0" height="33.0" rx="7.5" fill="#f2f0ec" opacity="1.0"/><rect x="36.0" y="1888.5" width="48.0" height="33.0" rx="7.5" fill="#f2f0ec" opacity="1.0"/><rect x="132.0" y="1888.5" width="48.0" height="33.0" rx="7.5" fill="#f2f0ec" opacity="1.0"/><rect x="228.0" y="1888.5" width="48.0" height="33.0" rx="7.5" fill="#f2f0ec" opacity="1.0"/><rect x="324.0" y="1888.5" width="48.0" height="33.0" rx="7.5" fill="#f2f0ec" opacity="1.0"/><rect x="420.0" y="1888.5" width="48.0" height="33.0" rx="7.5" fill="#f2f0ec" opacity="1.0"/><rect x="516.0" y="1888.5" width="48.0" height="33.0" rx="7.5" fill="#f2f0ec" opacity="1.0"/><rect x="612.0" y="1888.5" width="48.0" height="33.0" rx="7.5" fill="#f2f0ec" opacity="1.0"/><rect x="708.0" y="1888.5" width="48.0" height="33.0" rx="7.5" fill="#f2f0ec" opacity="1.0"/><rect x="804.0" y="1888.5" width="48.0" height="33.0" rx="7.5" fill="#f2f0ec" opacity="1.0"/><rect x="900.0" y="1888.5" width="48.0" height="33.0" rx="7.5" fill="#f2f0ec" opacity="1.0"/><rect x="996.0" y="1888.5" width="48.0" height="33.0" rx="7.5" fill="#f2f0ec" opacity="1.0"/><rect x="1092.0" y="1888.5" width="48.0" height="33.0" rx="7.5" fill="#f2f0ec" opacity="1.0"/>
<clipPath id="cropNext"><rect x="-60" y="1502.0" width="1200" height="118.0"/></clipPath>
<g clip-path="url(#cropNext)">
<rect x="-60" y="1502.0" width="1200" height="340" fill="url(#win)"/><rect x="-60" y="1502.0" width="1200" height="2.5" fill="url(#spectralL)" opacity="0.9"/>
<text x="540" y="1659.96" font-family="forma-djr-display, 'Forma DJR Display', 'Helvetica Neue', Arial, sans-serif" font-size="86" font-weight="600" letter-spacing="0.86" fill="#08080a" text-anchor="middle" opacity="1.0">NYC PUNK DREAM</text>
</g>
</svg>
